<svg width="24" height="24" viewBox="0 0 24 24" fill="none" xmlns="http://www.w3.org/2000/svg">
<path d="M20.5089 5.52256C19.8498 5.58947 19.2063 5.76508 18.6046 6.04225L4.50087 12.3303C4.08272 12.5176 3.7938 12.3026 3.40426 12.0127C2.7258 11.5143 1.72149 10.809 1.4141 10.5709C0.928564 10.1989 -0.275128 10.4287 0.0571796 11.1764L1.81656 15.1281C2.39441 16.4204 5.3981 16.1121 10.6439 13.773C11.0898 13.5736 11.6704 13.305 12.1726 13.0807L10.8452 20.1478C10.6744 20.8336 10.8498 21.0266 11.0759 20.9269L11.855 20.5807C12.2575 20.4007 12.815 19.7749 13.0956 19.1666L16.9033 10.9456C20.6972 9.17333 24.1689 7.39548 23.9123 6.82133C23.6104 6.1401 22.2959 5.35641 20.5089 5.52256ZM6.46056 6.47425C6.11903 6.46871 5.82549 6.50102 5.62426 6.59056L4.84518 6.93579C4.61995 7.03733 4.65318 7.29579 5.2781 7.6281L8.4221 9.53241L11.9123 7.97425L7.49995 6.61918C7.16161 6.52429 6.81195 6.47493 6.46056 6.47425Z" fill="white"/>
</svg>
